<svg xmlns="http://www.w3.org/2000/svg" viewBox="0 0 24 24"><g id="Color"><path d="M23,11.9999v10a1,1,0,0,1-1,1H6a1,1,0,0,1-1-1v-10Z" fill="#8c193f"/><path d="M5,11.9999v-10a1,1,0,0,1,1-1H22a1,1,0,0,1,1,1v10Z" fill="#d23062"/><rect y="-0.0001" width="24" height="24" transform="translate(24 23.9998) rotate(-180)" fill="none"/><path d="M22.47872,3.9999H5v8H23l.97656-6.25A1.516,1.516,0,0,0,22.47872,3.9999Z" fill="#bc1948"/><path d="M23.9822,18.28588,23,11.9999H5v8H22.51521A1.4848,1.4848,0,0,0,24,18.51511h0A1.48475,1.48475,0,0,0,23.9822,18.28588Z" fill="#e8467c"/><rect y="-0.0001" width="24" height="24" fill="none"/><path d="M13.83331,5.99989H5V19.99983h8.60417a1.5,1.5,0,0,0,1.39577-1.3541V7.16658A1.17009,1.17009,0,0,0,13.83331,5.99989Z" opacity="0.5"/><rect id="Back_Plate" data-name="Back Plate" x="0.00004" y="4.99991" width="13.99996" height="13.99993" rx="1.16666" fill="#bc1948"/><path d="M4,7.99988H6.57183a4.68909,4.68909,0,0,1,3.24686.99581,3.719,3.719,0,0,1,1.099,2.90377,4.19216,4.19216,0,0,1-.54393,2.15341,3.67311,3.67311,0,0,1-1.537,1.43934,5.00768,5.00768,0,0,1-2.30962.50767H4Zm2.53835,6.71129a3.04637,3.04637,0,0,0,1.46444-.33194,2.23654,2.23654,0,0,0,.94282-.95955A3.19551,3.19551,0,0,0,9.272,11.92735a2.59738,2.59738,0,0,0-.69735-1.947,2.76706,2.76706,0,0,0-2.01395-.68061H5.56206v5.41143Z" fill="#fff"/></g></svg>