<svg id="Layer_1" data-name="Layer 1" xmlns="http://www.w3.org/2000/svg" viewBox="0 0 24 24"><defs><style>.cls-1{fill:none;}.cls-2{fill:#036c70;}.cls-3{fill:#37c6d0;}.cls-4{opacity:0.5;}.cls-5{fill:#038387;}.cls-6{fill:#1a9ba1;}.cls-7{fill:#fff;}</style></defs><title>Forms_24x</title><g id="_24" data-name="24"><rect class="cls-1" width="24" height="24"/><path class="cls-2" d="M24,11,15,9,6,11V22a1,1,0,0,0,1,1H23a1,1,0,0,0,1-1Z"/><path class="cls-3" d="M24,12V2a1,1,0,0,0-1-1H7A1,1,0,0,0,6,2V12H24Z"/><path class="cls-4" d="M13.83,6H6V20h7.6A1.5,1.5,0,0,0,15,18.65V7.17A1.18,1.18,0,0,0,13.83,6Z"/><rect id="Back_Plate" data-name="Back Plate" class="cls-5" y="5" width="14" height="14" rx="1.17"/></g><rect class="cls-6" x="17" y="15" width="5" height="5"/><circle class="cls-6" cx="19.5" cy="6.5" r="3.5"/><circle class="cls-2" cx="19.5" cy="6.5" r="2"/><path class="cls-7" d="M9,9.3H5.57v2.18H8.8v1.3H5.57V16H4V8H9Z"/></svg>