<svg xmlns="http://www.w3.org/2000/svg" viewBox="0 0 2048.25 2048.25">
<title>Kaizala</title>
<g id="uniF492"><path d="M1878 1550q84 -115 127 -249t43 -277q0 -124 -32 -238.5t-90.5 -214t-140 -181t-181 -140t-214 -90.5t-238.5 -32t-238.5 32t-214 90.5t-181 140t-140 181t-90.5 214t-32 238.5v459q0 32 -14 57.5t-35.5 48t-46.5 43.5t-46.5 44t-35.5 49t-14 59q0 28 10.5 53t29 43.5
t43.5 29t53 10.5h952q167 0 319.5 -58.5t277.5 -169.5l116 117q28 28 68 28t68 -28t28 -68t-28 -68zM1920 1024q0 117 -34 227.5t-100 206.5l-694 -694q-28 -28 -68 -28t-68 28l-316 316q-28 28 -28 68t28 68t68 28t68 -28l248 -248l634 634q-107 94 -235.5 142t-270.5 48
h-952q-8 0 -8 -8l2 -5l115 -115q36 -36 55.5 -83t19.5 -98v-459q0 -106 27.5 -204t77.5 -183.5t120 -155.5t155.5 -120t183.5 -77.5t204 -27.5t204 27.5t183.5 77.5t155.5 120t120 155.5t77.5 183.5t27.5 204z" fill="#0093FE" transform="scale(1,-1) translate(0, -2048.25)" /></g>
</svg>