<svg xmlns="http://www.w3.org/2000/svg" viewBox="0 0 24 24"><defs><style>.cls-1{fill:none;}.cls-2{fill:#e8467c;}.cls-3{fill:#bc1948;}.cls-4{fill:#8c193f;}</style></defs><title>Stream_24x</title><g id="Yammer"><g id="_24" data-name="24"><g id="_24-2" data-name="24"><rect class="cls-1" width="24" height="24"/><g id="_40" data-name="40"><rect class="cls-1" width="24" height="24"/></g></g></g><path class="cls-2" d="M22.31,13l.21-.13a1,1,0,0,0,0-1.74L7,1.2A1.28,1.28,0,0,0,5,2.26V13l7,2Z"/><path class="cls-3" d="M5,21.74A1.28,1.28,0,0,0,7,22.8l15.55-9.93A1,1,0,0,0,23,12H5Z"/><path class="cls-4" d="M2,6.11l7.9,5.31a.7.7,0,0,1,0,1.16L2,17.89a.66.66,0,0,1-1-.58V6.69A.66.66,0,0,1,2,6.11Z"/></g></svg>